<svg width="934" height="762" viewBox="0 0 934 762" fill="none" xmlns="http://www.w3.org/2000/svg">
<path d="M196.375 217.883C197.975 199.883 181.375 200.717 172.875 203.383C184.875 190.883 199.375 201.383 201.875 209.383C204.375 217.383 201.375 234.383 191.875 243.883C178.375 254.383 178.375 258.883 168.875 270.883C161.275 280.483 154.042 304.55 151.375 315.383C148.042 318.717 140.775 325.583 138.375 326.383C142.375 288.883 133.375 278.883 128.375 272.883C124.375 268.083 92.0417 245.217 76.375 234.383C75.5417 234.383 72.775 238.283 68.375 253.883C60.375 294.283 77.7083 316.383 87.375 322.383C112.208 341.55 162.975 379.883 167.375 379.883C171.775 379.883 178.208 375.217 180.875 372.883V379.883C177.875 386.383 174.375 403.883 175.875 412.383C177.375 420.883 178.375 446.883 178.375 454.383C177.975 460.383 179.208 467.55 179.875 470.383C181.542 472.883 184.875 478.283 184.875 479.883C133.875 497.883 121.875 530.383 115.375 537.883C108.875 545.383 105.375 558.883 104.375 567.883C101.175 551.083 86.375 535.883 79.375 530.383C74.2083 526.383 61.075 517.083 49.875 511.883C27.875 506.383 21.875 510.883 11.375 517.383C0.875 523.883 3.875 536.383 4.875 539.883C-0.625 536.883 -3.625 511.883 7.875 503.883C17.075 497.483 27.0417 479.55 30.875 471.383C31.2083 469.717 31.975 464.083 32.375 454.883C32.875 443.383 38.875 428.883 44.375 419.383C48.775 411.783 57.875 406.883 61.875 405.383C59.875 409.217 55.875 420.183 55.875 433.383C57.075 463.383 79.7083 478.883 90.875 482.883C101.708 489.883 124.475 504.683 128.875 507.883C135.275 497.083 135.875 480.05 135.375 472.883C134.875 470.383 134.175 462.283 135.375 449.883C137.375 428.283 128.208 414.55 123.375 410.383L81.875 377.383C62.375 363.55 22.475 335.883 18.875 335.883C30.375 325.883 27.875 311.383 26.875 304.383C27.275 298.783 21.7083 287.717 18.875 282.883C16.7083 280.883 11.375 273.783 7.37496 261.383C3.37496 248.983 7.04163 239.883 9.37496 236.883C11.2083 234.55 15.675 229.783 18.875 229.383C6.87498 252.383 17.375 265.383 32.375 262.383C44.375 259.983 61.375 240.383 68.375 230.883C76.875 218.55 95.075 192.583 99.875 187.383C114.875 211.383 132.375 220.383 155.375 234.383C177.875 247.383 194.375 240.383 196.375 217.883Z" fill="black"/>
<path d="M206.875 228.883L227.875 206.883L242.875 221.883C244.208 223.383 247.375 226.883 249.375 228.883C251.375 230.883 251.208 231.717 250.875 231.883C246.042 238.217 235.775 251.583 233.375 254.383C230.375 257.883 226.375 257.883 224.375 257.383C222.775 256.983 219.708 254.55 218.375 253.383C215.375 250.883 208.875 239.883 206.875 235.883C205.336 232.806 206.042 230.05 206.875 228.883Z" fill="black"/>
<path d="M228.875 279.883C232.875 286.383 249.375 304.884 255.375 306.384C252.175 306.384 247.375 312.384 245.375 315.384V374.384C248.042 378.384 255.075 386.684 261.875 387.884C252.275 390.684 246.875 400.717 245.375 405.384V477.384C245.208 480.551 244.975 487.684 245.375 490.884C245.875 494.884 251.875 501.384 257.875 504.884C247.075 508.084 233.042 527.217 227.375 536.384C224.875 519.884 202.875 505.384 197.375 502.884C205.375 500.084 209.041 492.717 209.875 489.384V405.384C209.875 398.884 197.375 389.384 191.375 386.384C203.375 383.984 208.708 376.051 209.875 372.384C210.042 356.385 210.275 323.687 209.875 320.884C209.375 317.384 199.375 307.884 195.875 307.884C200.275 305.484 219.708 288.216 228.875 279.883ZM226.559 376.557C223.165 381.437 218.929 385.674 214.049 389.068L212.875 389.884L214.049 390.699C218.929 394.093 223.165 398.33 226.559 403.21L227.375 404.384L228.191 403.21C231.585 398.33 235.821 394.093 240.701 390.699L241.875 389.884L240.701 389.068C235.821 385.674 231.585 381.437 228.191 376.557L227.375 375.384L226.559 376.557Z" fill="black"/>
<path d="M444.375 375.383L445.191 376.557C448.584 381.438 452.821 385.674 457.701 389.067L458.875 389.883L457.701 390.699C452.821 394.093 448.584 398.329 445.191 403.21L444.375 404.383L443.559 403.21C440.166 398.329 435.929 394.093 431.049 390.699L429.875 389.883L431.049 389.067C435.929 385.674 440.166 381.438 443.559 376.557L444.375 375.383Z" fill="white"/>
<path d="M518.375 375.383L519.191 376.557C522.584 381.438 526.821 385.674 531.701 389.067L532.875 389.883L531.701 390.699C526.821 394.093 522.584 398.329 519.191 403.21L518.375 404.383L517.559 403.21C514.166 398.329 509.929 394.093 505.049 390.699L503.875 389.883L505.049 389.067C509.929 385.674 514.166 381.438 517.559 376.557L518.375 375.383Z" fill="white"/>
<path d="M614.875 358.384C614.876 374.883 630.876 379.384 640.875 379.384C628.876 382.584 618.542 395.05 614.875 400.884V471.384L570.875 496.384C573.376 495.55 582.176 492.383 597.375 486.384C639.775 475.984 675.376 506.717 687.875 523.384C692.376 529.884 706.176 547.384 725.375 565.384C756.875 590.883 776.875 564.884 779.875 557.884C782.875 551.884 780.376 540.884 779.375 537.384C785.376 537.885 795.375 566.384 767.375 584.884C719.776 610.083 688.209 593.384 678.375 581.884C670.876 570.884 648.875 544.084 620.875 524.884C557.875 496.884 538.375 531.884 535.375 539.384C532.375 528.884 544.375 510.384 555.375 501.884C570.175 491.484 574.875 476.217 575.375 469.884C575.209 462.384 574.975 441.684 575.375 418.884C577.375 395.284 562.876 383.717 555.375 380.884C573.375 375.684 574.375 362.884 574.375 355.884V263.884C574.375 263.095 571.456 259.645 569.937 257.952C570.726 258.739 573.987 259.05 581.375 254.384C590.176 247.984 607.376 244.384 614.875 243.384V358.384ZM583.375 202.884C611.374 195.247 630.474 199.584 640.875 202.384C651.274 205.184 663.541 210.55 668.375 212.884L721.875 246.884C724.874 248.884 731.874 252.483 735.875 250.884C733.075 253.684 729.374 265.051 727.875 270.384V363.384C729.541 367.717 735.275 376.984 744.875 379.384C737.375 381.384 727.875 392.884 727.875 397.884V457.384C728.541 461.217 730.675 469.383 733.875 471.384C727.874 471.384 700.374 483.384 674.875 504.884C680.208 497.217 690.174 474.884 687.375 446.884V400.884C685.875 395.384 678.475 383.384 660.875 379.384C670.874 378.584 679.041 373.05 681.875 370.384C684.041 369.384 688.174 359.384 687.375 327.384C686.975 301.784 686.541 292.384 686.375 290.884C685.93 286.884 681.875 271.884 664.375 259.384L664.134 259.212C639.458 241.585 595.839 210.427 538.76 248.714C530.121 254.509 524.076 264.051 525.128 274.401C525.604 279.073 526.607 282.593 527.375 284.384C522.578 283.3 515.225 274.403 521.237 247.851C522.215 243.531 523.727 239.293 526.176 235.602C540.2 214.474 568.185 207.026 583.375 202.884ZM594.559 368.557C591.166 373.438 586.929 377.674 582.048 381.067L580.875 381.884L582.048 382.699C586.929 386.092 591.166 390.329 594.559 395.21L595.375 396.384L596.191 395.21C599.584 390.329 603.821 386.092 608.702 382.699L609.875 381.884L608.702 381.067C603.821 377.674 599.584 373.438 596.191 368.557L595.375 367.384L594.559 368.557ZM706.559 368.557C703.166 373.438 698.929 377.674 694.048 381.067L692.875 381.884L694.048 382.699C698.929 386.092 703.166 390.329 706.559 395.21L707.375 396.384L708.191 395.21C711.584 390.329 715.821 386.092 720.702 382.699L721.875 381.884L720.702 381.067C715.821 377.674 711.584 373.438 708.191 368.557L707.375 367.384L706.559 368.557Z" fill="black"/>
<path d="M780.375 367.383L781.191 368.557C784.584 373.438 788.821 377.674 793.701 381.067L794.875 381.883L793.701 382.699C788.821 386.093 784.584 390.329 781.191 395.21L780.375 396.383L779.559 395.21C776.166 390.329 771.929 386.093 767.049 382.699L765.875 381.883L767.049 381.067C771.929 377.674 776.166 373.438 779.559 368.557L780.375 367.383Z" fill="white"/>
<path d="M889.375 367.383L890.191 368.557C893.584 373.438 897.821 377.674 902.701 381.067L903.875 381.883L902.701 382.699C897.821 386.093 893.584 390.329 890.191 395.21L889.375 396.383L888.559 395.21C885.166 390.329 880.929 386.093 876.049 382.699L874.875 381.883L876.049 381.067C880.929 377.674 885.166 373.438 888.559 368.557L889.375 367.383Z" fill="white"/>
<path d="M408.875 249.383C408.475 256.983 390.042 272.217 380.875 278.883C383.375 281.884 392.875 287.883 397.375 290.383C397.775 290.383 411.875 269.383 418.875 258.883C421.042 255.383 426.875 247.583 432.875 244.383C436.475 239.584 433.708 238.05 431.875 237.883H424.375C425.375 232.383 427.175 220.583 426.375 217.383C425.575 214.183 417.042 213.717 412.875 213.883C412.042 214.383 410.675 216.383 411.875 220.383C413.075 224.383 413.042 234.383 412.875 238.883C412.708 240.05 411.675 242.183 408.875 241.383C404.475 239.783 403.708 242.717 403.875 244.383C405.208 244.55 408.075 245.783 408.875 249.383Z" fill="black"/>
<path d="M399.875 217.883L372.875 241.883L371.375 210.883C365.875 211.717 354.375 212.883 352.375 210.883C351.175 205.283 345.542 198.55 342.875 195.883C340.208 196.217 333.275 195.983 326.875 192.383C314.075 179.983 309.542 166.883 308.875 161.883C308.708 157.383 308.875 147.983 310.875 146.383C313.675 150.783 326.375 159.883 332.375 163.883C335.708 164.717 342.775 166.283 344.375 165.883C345.175 165.083 343.708 162.883 342.875 161.883C340.875 161.717 334.375 159.883 324.375 153.883C312.375 143.883 304.708 131.05 302.375 125.883V90.3834C301.708 86.3834 299.075 77.4834 293.875 73.8834C307.875 71.8834 314.708 67.0501 316.375 64.8834C317.542 63.7168 322.575 60.2834 333.375 55.8834C329.875 62.8834 329.375 83.3834 330.375 84.3834C331.175 85.1834 335.042 96.3834 336.875 101.883C335.375 104.55 332.575 112.183 333.375 121.383C334.575 130.583 348.208 146.883 354.875 153.883C357.042 156.883 361.575 163.183 362.375 164.383C363.375 165.883 384.375 177.383 390.875 177.383C396.075 177.383 395.042 179.05 393.875 179.883C387.542 181.55 374.475 185.583 372.875 188.383C376.375 196.383 388.875 207.883 396.875 211.883C403.275 215.083 401.542 217.217 399.875 217.883Z" fill="black"/>
<path d="M344.375 46.3834C321.175 71.5834 343.708 105.55 357.875 119.383C356.375 110.383 354.875 71.8834 356.375 65.8834C357.575 61.0834 371.875 45.8834 378.875 38.8834C372.708 37.5501 357.175 37.1834 344.375 46.3834Z" fill="black"/>
<path d="M377.375 8.38344C358.575 21.1834 348.875 33.7168 346.375 38.3834C355.375 31.8835 386.375 32.8834 390.375 33.3834C390.375 32.1834 407.708 24.8834 416.375 21.3834C420.875 21.0501 431.375 20.5834 437.375 21.3834C436.175 16.5834 425.542 10.7168 420.375 8.38344C413.208 8.38344 397.875 7.98344 393.875 6.38342C392.375 5.88342 389.375 2.88344 386.375 0.883443C384.375 -0.716557 381.875 0.216776 380.875 0.883443C380.875 2.21678 380.175 5.58344 377.375 8.38344Z" fill="black"/>
<path d="M469.875 99.8834C475.075 44.2834 452.708 22.3834 440.875 18.3834C444.375 13.8834 462.375 6.88345 472.875 14.8834C482.475 28.0834 496.542 39.7168 502.375 43.8834L515.875 45.8834L512.375 54.3834C512.708 58.8834 513.275 70.9834 512.875 83.3834C512.475 96.1834 510.375 106.717 509.375 110.383C508.708 111.717 506.375 115.683 502.375 120.883C498.375 126.083 489.708 132.383 485.875 134.883C482.375 136.717 474.575 140.283 471.375 139.883C473.375 132.283 480.208 120.717 483.375 115.883L488.375 108.383C489.875 106.383 492.875 101.483 492.875 97.8834C493.275 96.2834 492.375 92.5501 491.875 90.8834C490.708 88.0501 488.275 82.0834 487.875 80.8834C487.475 79.6834 490.042 76.3834 491.375 74.8834C492.375 73.7168 493.975 71.0834 492.375 69.8834C483.575 69.8834 478.708 78.2168 477.375 82.3834C476.042 86.5501 472.675 95.8834 469.875 99.8834Z" fill="black"/>
<path d="M401.875 179.883L380.875 187.883C383.275 205.883 413.542 209.383 428.375 208.883C433.708 210.717 445.175 213.783 448.375 211.383C457.175 212.183 464.042 208.717 466.375 206.883H480.375C482.375 203.55 486.675 194.783 487.875 186.383C498.275 185.183 504.208 180.217 505.875 177.883C507.208 174.383 510.675 166.283 513.875 161.883C522.275 153.883 525.042 142.217 525.375 137.383C524.042 130.05 520.275 114.683 515.875 111.883C509.875 127.483 486.042 140.717 474.875 145.383C473.708 145.383 470.375 146.183 466.375 149.383C461.175 164.983 430.542 176.217 415.875 179.883H401.875Z" fill="black"/>
<path d="M335.375 256.384C340.709 269.551 359.875 297.184 393.875 302.384C390.675 303.584 387.542 313.217 386.375 317.884V380.384C386.709 384.884 390.775 394.184 404.375 395.384C385.875 399.384 387.375 411.384 387.375 422.384V459.384L387.668 470.237C387.805 475.325 388.377 480.393 389.375 485.384C390.375 490.717 395.475 501.784 407.875 503.384C402.275 505.784 386.875 525.051 379.875 534.384C375.042 527.05 361.675 510.384 346.875 502.384C348.356 501.347 349.517 499.959 350.409 498.503C352.875 494.477 352.875 489.532 352.875 484.81V445.884C346.542 447.217 329.675 449.084 312.875 445.884V489.384C313.375 492.884 315.875 500.384 321.875 502.384C316.875 503.384 292.375 530.384 292.875 534.384C289.875 527.384 283.375 514.884 263.875 505.384C273.875 500.884 275.375 497.384 277.375 490.384L278.875 407.384C277.875 404.884 273.475 398.984 263.875 395.384C270.875 394.384 284.875 389.383 284.375 369.384C283.975 353.384 284.208 335.384 284.375 328.384C284.542 327.884 282.775 324.984 274.375 317.384C280.208 315.717 295.175 308.284 308.375 291.884C321.575 275.484 331.875 261.384 335.375 256.384ZM327.375 313.384C326.375 313.717 323.975 314.784 322.375 316.384C320.775 317.984 320.375 323.051 320.375 325.384L317.875 354.384L316.875 413.884C326.875 415.05 347.375 417.784 349.375 419.384C349.775 418.184 349.542 407.551 349.375 402.384V379.384L349.875 331.384V326.884C348.875 325.384 347.875 324.384 345.875 323.384C343.948 322.42 332.708 316.384 327.375 313.384Z" fill="black"/>
<path d="M486.375 74.3834C486.18 74.6084 485.966 74.873 485.737 75.1753C481.837 80.6772 486.469 88.7346 488.375 95.8834C488.375 104.283 479.375 113.717 474.875 117.383C473.708 117.883 468.375 120.683 456.375 127.883C444.775 137.083 424.875 136.717 416.375 135.383L405.375 134.883C404.708 135.217 403.775 136.083 405.375 136.883C428.575 141.683 444.708 137.217 449.875 134.383C454.042 132.05 463.575 126.983 468.375 125.383C467.575 151.783 445.042 164.05 433.875 166.883C432.042 167.717 424.575 169.883 409.375 171.883C394.175 173.483 382.708 169.55 378.875 167.383C373.208 163.383 361.175 154.483 358.375 150.883C358.375 148.483 347.042 134.883 341.375 128.383C340.708 123.55 339.975 113.183 342.375 110.383C344.375 123.383 358.875 127.383 366.875 133.383C373.275 139.383 385.208 136.55 390.375 134.383C394.875 130.717 408.175 122.783 425.375 120.383C442.575 117.983 461.208 110.717 468.375 107.383C471.375 105.05 477.675 99.0834 478.875 93.8834C479.603 85.1472 483.423 78.2329 485.737 75.1753C485.929 74.905 486.141 74.6409 486.375 74.3834Z" fill="black"/>
<path d="M381.875 89.8834C411.075 103.483 422.042 113.217 423.875 116.383C413.875 116.383 395.375 125.717 387.375 130.383C384.208 131.383 376.475 132.583 370.875 129.383C359.875 118.883 361.375 99.8834 362.375 96.3834C363.575 93.9834 363.542 89.3834 363.375 87.3834C362.042 83.3834 360.175 73.3834 363.375 65.3834C375.375 47.3834 380.875 40.3834 413.875 27.8834C447.875 21.3834 454.375 36.8834 460.375 47.8834C466.375 58.8834 464.875 98.3834 461.875 103.383C458.375 107.383 432.875 113.883 428.875 112.883C428.875 107.383 430.875 100.883 442.375 84.3834C450.375 66.3834 446.375 53.8834 443.375 49.8834C443.375 52.2168 443.175 57.3834 442.375 59.3834C439.375 54.8834 419.375 41.3834 410.375 41.8834C401.375 42.3834 392.375 45.3834 380.875 55.8834C369.375 66.3834 371.875 79.8834 381.875 89.8834Z" fill="black"/>
<path d="M388.875 55.383C397.875 46.3832 411.875 43.3831 426.375 50.883C443.874 67.3815 440.876 70.8826 441.375 71.883C441.875 72.883 438.875 82.883 431.875 90.383C426.275 96.3827 423.875 104.549 423.375 107.883C420.208 105.716 410.975 99.8829 399.375 93.883C386.575 91.483 382.042 80.5497 381.375 75.383C380.875 71.7161 381.675 62.5827 388.875 55.383ZM417.875 59.883C414.875 55.8831 404.375 52.3835 395.875 60.883C391.875 64.8829 391.875 71.883 394.875 75.883C398.708 79.383 409.575 84.283 422.375 75.883C429.175 69.483 427.542 61.883 425.875 58.883C425.542 61.7163 423.375 68.383 417.375 72.383C419.375 67.3832 420.875 63.8829 417.875 59.883Z" fill="black"/>
<circle cx="407.875" cy="68.3834" r="7" fill="black"/>
<path d="M531.375 113.883C528.975 112.683 525.375 106.717 523.875 103.883C523.075 101.083 524.208 98.3834 524.875 97.3834C528.042 93.3834 535.275 84.7834 538.875 82.3834C541.275 95.9834 538.875 108.717 537.375 113.383C536.375 114.05 533.775 115.083 531.375 113.883Z" fill="black"/>
<path d="M531.375 135.883C533.375 134.683 540.208 126.05 543.375 121.883C542.375 97.8835 549.875 89.8834 551.875 85.8834C553.475 82.6834 562.208 75.5501 566.375 72.3834C566.208 74.2168 566.375 78.4834 568.375 80.8834C573.175 74.0834 584.042 69.3834 588.875 67.8834C588.708 68.7168 587.875 71.5834 585.875 76.3834C592.675 69.1834 604.375 67.3834 609.375 67.3834C609.208 68.0501 608.875 69.8834 608.875 71.8834C612.875 67.8834 631.875 69.8834 645.375 71.8834C633.375 75.4834 623.042 87.3834 619.375 92.8834L623.375 94.3834L608.875 103.883L616.375 108.383L600.875 116.383C599.875 116.883 597.975 118.183 598.375 119.383C602.375 119.783 605.375 122.217 606.375 123.383L583.875 130.383C587.708 131.883 594.975 135.083 593.375 135.883C573.375 141.083 561.042 136.383 557.375 133.383C555.042 132.217 550.175 129.183 549.375 126.383C551.375 123.183 562.542 115.05 567.875 111.383L583.875 112.883L571.375 109.383L583.875 99.3834L604.875 87.3834C606.542 86.7168 610.775 84.6834 614.375 81.8834C606.775 82.6834 592.875 89.5501 586.875 92.8834L575.375 101.383C576.042 98.2168 577.275 90.5834 576.875 85.3834C574.475 99.7834 566.875 107.383 563.375 109.383L562.375 101.383L561.375 110.383C558.875 112.383 552.275 117.783 545.875 123.383C541.875 132.983 535.208 138.05 532.375 139.383C531.708 139.383 530.575 138.683 531.375 135.883Z" fill="black"/>
<path d="M553.875 167.383C550.275 156.983 537.375 149.383 531.375 146.883C534.175 141.283 547.208 142.55 553.375 143.883C557.375 147.217 565.375 154.383 565.375 156.383C565.375 158.383 567.708 167.55 568.875 171.883C571.375 173.55 576.675 177.183 577.875 178.383C551.875 178.783 538.708 172.55 535.375 169.383L524.875 156.883C525.208 154.883 526.875 150.583 530.875 149.383C538.375 151.883 553.375 168.383 553.875 167.383Z" fill="black"/>
<path d="M287.375 209.383C290.575 190.583 302.042 181.883 307.375 179.883C316.875 184.75 300.375 211.883 293.875 214.883C288.675 216.483 278.375 224.217 273.875 227.883L274.375 211.383C273.375 210.883 271.275 208.583 270.875 203.383C271.375 195.383 274.875 186.883 280.875 181.383C286.375 176.383 302.375 173.883 304.875 174.383C307.375 174.883 307.375 177.883 306.375 177.883C292.775 181.083 287.042 197.217 285.875 204.883C285.708 206.717 285.775 210.183 287.375 209.383Z" fill="black"/>
<path d="M303.375 168.883C296.575 168.483 286.208 162.383 281.875 159.383C289.075 159.383 299.208 162.717 303.375 164.383C303.875 165.55 304.575 168.083 303.375 168.883Z" fill="black"/>
<path d="M283.375 129.883C284.175 131.883 283.042 149.383 282.375 157.883L263.875 150.883L256.375 136.383L258.875 150.883L240.375 143.883L232.375 134.383L236.375 143.883C227.042 142.383 208.275 139.683 207.875 140.883C225.875 143.283 248.708 151.55 257.875 155.383L238.375 164.383L261.875 156.383C264.208 156.883 271.075 158.583 279.875 161.383C277.875 175.783 263.042 182.383 255.875 183.883H237.875L248.875 176.883L232.375 177.883L233.875 174.383L214.375 171.883C217.208 168.717 222.375 162.183 220.375 161.383C218.375 160.583 208.875 160.383 204.375 160.383C204.708 159.55 206.575 157.383 211.375 155.383C207.775 154.183 201.875 152.55 199.375 151.883C194.208 148.217 181.975 140.383 174.375 138.383C188.375 137.583 195.208 132.05 196.875 129.383L207.875 128.383L207.375 123.383L218.375 125.383C219.542 125.717 222.075 126.283 222.875 125.883C223.675 125.483 219.875 120.05 217.875 117.383L235.375 123.383C235.208 122.05 234.975 119.083 235.375 117.883C248.575 122.683 258.542 125.217 261.875 125.883C261.542 124.383 260.275 120.683 257.875 117.883C272.875 117.383 282.375 127.383 283.375 129.883Z" fill="black"/>
<path d="M852.375 607.383C861.175 588.583 848.708 565.217 841.375 555.883C876.375 563.383 868.875 602.883 864.875 617.383C888.375 590.383 885.875 575.383 890.875 568.883C885.875 636.383 800.875 672.383 733.875 670.883C682.275 662.083 637.375 639.55 621.375 629.383L616.241 626.363C614.001 625.046 611.872 623.547 609.875 621.883C594.375 609.383 545.375 582.783 473.375 576.383C379.875 582.883 367.875 653.883 383.875 695.383C406.001 741.883 433.375 750.883 469.375 752.383C522.375 743.883 526.375 716.383 527.875 707.883L527.861 708.036C526.855 718.604 524.68 741.458 484.375 756.883C450.775 770.483 413.375 752.217 398.875 741.383C396.375 739.217 389.175 732.083 380.375 720.883C374.775 709.283 357.375 690.05 349.375 681.883C349.042 684.383 348.175 691.183 347.375 698.383C338.575 668.783 323.708 658.717 317.375 657.383L292.875 652.383L308.375 647.883C307.542 646.717 304.375 643.583 298.375 640.383C291.375 636.883 268.875 633.883 265.875 633.883C263.475 633.883 249.542 637.55 242.875 639.383L251.375 631.383C250.375 631.05 244.175 630.383 227.375 630.383C210.575 630.383 190.042 641.717 181.875 647.383C177.708 650.55 168.375 658.183 164.375 663.383C162.375 650.883 175.875 640.883 179.375 637.883C173.775 638.683 161.708 637.55 156.375 636.883L131.375 632.883C129.542 631.883 124.675 629.983 119.875 630.383C114.675 631.983 104.042 632.383 99.375 632.383C102.708 630.717 109.975 626.883 112.375 624.883C103.975 622.083 91.5417 614.383 86.375 610.883C85.0417 609.717 81.375 606.683 77.375 603.883C74.975 610.283 67.375 612.217 63.875 612.383L63.375 600.383C62.5417 599.883 61.275 597.983 62.875 594.383C64.475 590.783 64.2083 583.883 63.875 580.883C62.7083 577.717 59.575 570.283 56.375 565.883C67.575 566.283 78.0417 578.717 81.875 584.883C82.5417 587.55 83.675 594.283 82.875 599.883C90.475 608.283 105.708 615.383 112.375 617.883C112.042 615.717 110.675 609.583 107.875 602.383C121.075 625.183 151.375 630.55 164.875 630.383C167.042 630.883 171.875 631.383 173.875 629.383C176.375 626.883 162.875 619.383 159.375 614.383C173.375 624.383 204.208 623.883 217.875 622.383C221.042 622.217 228.375 621.683 232.375 620.883C234.775 620.083 234.042 617.55 233.375 616.383L204.875 589.383C203.708 589.55 200.275 591.083 195.875 595.883C181.875 597.083 174.042 593.717 171.875 591.883C176.875 590.383 186.975 586.583 187.375 583.383C185.875 575.883 199.875 571.383 202.375 574.383C203.175 572.383 201.375 563.217 200.375 558.883L196.375 547.383L195.375 553.883C193.875 553.217 189.575 551.783 184.375 551.383C190.375 554.983 194.875 561.217 196.375 563.883C196.875 565.05 197.575 567.583 196.375 568.383C190.375 569.183 184.875 576.05 182.875 579.383C182.875 578.883 182.575 577.683 181.375 576.883C163.375 560.883 160.875 548.383 159.875 545.383C168.375 546.383 171.875 544.383 176.875 543.383C173.875 539.383 167.875 540.383 161.875 540.383C172.875 533.883 186.875 539.883 198.375 545.383C208.375 549.783 211.542 558.217 211.875 561.883C212.042 566.883 211.675 577.783 208.875 581.383C218.875 601.883 254.875 616.883 264.375 619.883C281.575 621.483 304.542 632.217 313.875 637.383C317.375 639.717 323.975 643.783 322.375 641.383C320.775 638.983 316.042 625.383 313.875 618.883L312.375 611.383C313.875 611.217 316.775 610.683 316.375 609.883C315.892 608.918 305.628 581.402 295.473 565.101C300.65 574.387 308.979 603.833 310.375 609.883C302.375 609.883 294.375 606.383 291.375 602.383C288.375 598.383 282.375 590.383 282.875 579.383C287.375 565.883 286.375 553.883 286.375 552.383C286.375 550.883 280.375 547.383 272.875 546.383C286.475 543.183 307.542 553.717 316.375 559.383C317.708 561.05 320.575 564.183 321.375 563.383C325.375 561.883 327.375 569.383 327.875 574.383C333.475 576.783 334.208 582.05 333.875 584.383C332.042 591.717 326.575 607.083 319.375 609.883C321.375 624.283 337.875 647.883 345.875 657.883C348.542 661.217 355.275 669.383 360.875 675.383C355.275 619.383 397.875 579.05 419.875 565.883C433.375 560.383 469.775 548.983 507.375 547.383C537.828 543.442 602.643 572.634 640.386 592.42C648.407 596.625 655.716 602.084 663.443 606.807C676.274 614.648 699.719 626.351 736.875 639.383C818.875 653.883 841.375 630.883 852.375 607.383Z" fill="black"/>
<path d="M57.375 600.383C52.975 605.983 42.875 608.383 38.375 608.883C44.775 616.483 57.375 615.05 62.875 613.383C61.875 610.05 59.375 602.783 57.375 600.383Z" fill="black"/>
<path d="M57.3749 595.883C39.7749 609.083 25.3749 593.383 20.3749 583.883C19.2083 585.55 16.5749 588.283 15.3749 585.883C14.1749 583.483 18.5416 579.55 20.8749 577.883C19.0416 577.55 15.6749 576.683 16.8749 575.883C18.0749 575.083 22.7083 574.883 24.8749 574.883L30.8749 568.383C29.5416 569.05 26.2749 570.383 23.8749 570.383C21.4749 570.383 21.8749 568.383 22.3749 567.383C27.7083 566.883 40.0749 566.183 46.8749 567.383C55.3749 568.883 61.8749 583.883 57.3749 595.883Z" fill="black"/>
<path d="M480.875 257.384C488.875 272.384 523.875 299.884 542.875 308.384C536.875 315.384 536.875 317.884 536.875 324.384C536.075 333.984 536.542 361.717 536.875 374.384C537.875 377.717 542.175 385.284 551.375 388.884C544.875 391.384 536.875 401.884 536.875 405.884V467.384C536.875 469.551 537.675 474.584 540.875 477.384C536.875 477.884 489.875 500.884 473.375 536.384C462.542 522.05 435.175 492.684 412.375 489.884C417.975 487.484 420.375 481.884 420.875 479.384L423.375 403.884C421.542 399.384 415.775 389.784 407.375 387.384C413.775 385.784 420.708 379.717 423.375 376.884V326.884C422.708 324.884 419.975 320.084 414.375 316.884C425.875 312.884 459.875 293.384 480.875 257.384ZM461.875 294.884C459.875 296.484 459.375 301.217 459.375 303.384V375.384C461.542 379.217 466.875 387.784 470.875 391.384C470.075 394.184 463.875 397.551 460.875 398.884V438.384L460.375 468.384C471.542 476.884 494.475 494.884 496.875 498.884C497.675 497.684 498.875 493.051 499.375 490.884C499.708 487.217 500.375 477.984 500.375 470.384V404.884C499.042 401.55 494.575 393.584 487.375 388.384C490.875 386.884 496.375 384.884 497.875 382.384C499.075 380.384 500.042 375.551 500.375 373.384L500.875 327.884C489.708 319.884 466.275 302.084 461.875 294.884Z" fill="black"/>
<path d="M419.875 641.883C437.375 607.883 470.875 595.883 497.875 600.383C519.475 603.983 544.875 614.883 554.875 619.883L522.875 621.883C527.875 628.216 536.375 645.983 530.375 666.383C533.208 668.716 539.675 673.083 542.875 671.883C546.075 670.683 555.875 662.716 560.375 658.883C565.042 657.883 575.775 655.883 581.375 655.883C581.375 657.083 579.709 658.383 578.875 658.883L594.875 659.883L590.375 662.883C592.542 665.883 600.775 673.383 616.375 679.383C609.177 679.383 606.709 680.383 606.375 680.883C611.708 682.55 622.375 687.983 622.375 696.383C619.176 693.984 617.709 694.383 617.375 694.883C620.875 699.05 627.675 708.883 626.875 714.883C623.276 712.084 622.376 712.383 622.375 712.883C625.542 721.216 631.675 739.883 630.875 747.883C625.675 743.883 614.708 735.216 609.875 731.383V737.883L593.375 726.383L594.875 735.383C590.875 734.216 581.575 729.983 576.375 722.383C575.575 725.583 576.708 730.716 577.375 732.883C571.208 730.883 558.675 723.483 557.875 709.883C556.275 710.284 557.875 722.05 558.875 727.883C547.375 722.216 527.375 703.983 539.375 676.383C534.575 674.383 530.375 671.217 528.875 669.883C527.375 675.717 520.775 690.583 506.375 703.383C488.375 719.383 454.875 719.883 440.375 707.383C425.875 694.883 409.875 680.883 419.875 641.883ZM544.375 673.383C543.709 674.05 542.375 675.583 542.375 676.383C544.541 677.55 548.873 679.982 548.875 680.383C548.875 680.783 551.208 689.216 552.375 693.383L550.875 680.383L560.375 684.883C561.042 689.716 562.575 699.583 563.375 700.383C564.175 701.183 563.375 690.383 562.875 684.883L580.375 694.883L583.375 706.383L582.875 695.383C590.708 701.05 606.674 712.983 607.875 715.383C606.874 711.882 579.875 685.883 566.875 681.883C576.875 680.683 586.042 678.717 589.375 677.883L562.875 678.883L544.375 673.383ZM497.875 630.883C497.875 621.883 486.875 611.383 458.375 619.383C418.375 638.183 430.042 671.883 440.875 686.383L434.875 687.383L440.875 688.383C443.542 692.05 451.875 700.583 463.875 705.383C494.375 711.883 515.375 680.883 518.875 672.883C521.675 666.483 520.708 657.216 519.875 653.383L518.875 650.883C518.375 650.383 517.675 648.983 518.875 647.383C518.875 643.783 511.875 630.883 508.375 624.883C508.375 630.383 501.375 636.383 497.875 630.883Z" fill="black"/>
<path d="M839.875 199.384C849.875 221.051 879.975 265.784 920.375 271.384C908.875 276.384 909.875 291.861 909.875 297.384C909.875 302.884 910.042 317.217 909.875 324.384V357.384C910.542 363.551 916.175 376.584 933.375 379.384C922.375 385.884 909.875 396.384 909.875 406.884V457.884C910.375 467.883 913.875 470.884 916.375 472.384C865.175 479.984 837.375 524.884 829.875 546.384C816.542 529.717 781.175 496.084 746.375 494.884C757.375 487.884 758.685 485.349 759.875 481.384C761.375 476.384 761.875 468.384 761.875 454.884C761.875 440.385 762.042 433.884 761.875 432.384V401.884C761.875 389.884 757.175 390.284 746.375 381.884C753.575 378.684 758.041 373.551 759.375 371.384C760.208 369.884 761.875 362.884 761.875 346.884V297.884C761.875 288.384 756.175 284.084 751.375 280.884C804.975 259.284 832.708 217.551 839.875 199.384ZM814.875 245.884C806.475 252.684 803.708 276.717 803.375 287.884V365.384C804.875 373.384 812.875 376.384 823.875 380.384C806.275 386.384 801.875 410.884 801.875 422.384C801.542 433.217 801.375 456.084 803.375 460.884C805.376 465.684 831.542 483.884 844.375 492.384C846.208 493.217 851.075 495.584 855.875 498.384C864.275 490.784 868.375 470.217 869.375 460.884V403.884C869.375 401.884 868.042 396.717 867.375 394.384C863.042 390.217 854.175 380.784 853.375 376.384C864.575 374.384 868.708 368.217 869.375 365.384V308.884C869.375 302.484 867.042 296.217 865.875 293.884C852.708 280.551 824.075 252.284 814.875 245.884Z" fill="black"/>
</svg>
